<svg width="13" height="12" viewBox="0 0 13 12" fill="none" xmlns="http://www.w3.org/2000/svg">
<path d="M12.0055 4.16254L8.28631 3.62299L6.62371 0.258476C6.5783 0.166357 6.50359 0.0917853 6.41131 0.0464573C6.17986 -0.0675939 5.89861 0.0274488 5.78289 0.258476L4.12029 3.62299L0.401051 4.16254C0.298512 4.17716 0.204762 4.22541 0.132985 4.29852C0.0462101 4.38755 -0.0016068 4.50732 4.12294e-05 4.63152C0.00168926 4.75572 0.0526674 4.87419 0.141774 4.96089L2.83269 7.57968L2.19695 11.2776C2.18204 11.3636 2.19158 11.4521 2.22448 11.533C2.25738 11.6138 2.31232 11.6839 2.38309 11.7352C2.45385 11.7865 2.53759 11.817 2.62483 11.8232C2.71207 11.8294 2.7993 11.8111 2.87664 11.7703L6.2033 10.0245L9.52996 11.7703C9.62078 11.8186 9.72625 11.8347 9.82732 11.8171C10.0822 11.7733 10.2536 11.532 10.2096 11.2776L9.5739 7.57968L12.2648 4.96089C12.3381 4.88925 12.3864 4.79567 12.4011 4.69331C12.4406 4.43743 12.2619 4.20055 12.0055 4.16254Z" fill="#FC8B40"/>
</svg>
